<svg width="140" height="140" viewBox="0 0 140 140" fill="none" xmlns="http://www.w3.org/2000/svg">
<path d="M119.067 16.7134C119.346 15.7517 120.709 15.7517 120.988 16.7134L123.978 27.0171C124.068 27.3267 124.301 27.574 124.605 27.6813L134.237 31.0843C135.126 31.3984 135.126 32.6559 134.237 32.97L124.605 36.3729C124.301 36.4803 124.068 36.7276 123.978 37.0371L120.988 47.3408C120.709 48.3026 119.346 48.3026 119.067 47.3408L116.077 37.0371C115.988 36.7276 115.754 36.4803 115.45 36.3729L105.819 32.97C104.93 32.6559 104.93 31.3984 105.819 31.0843L115.45 27.6813C115.754 27.574 115.988 27.3267 116.077 27.0171L119.067 16.7134Z" fill="#538D70"/>
<path d="M69.9743 18.0595C73.4662 13.9857 85.1059 0.0188603 92.6716 25.6259C100.237 51.2326 99.8425 48.0451 106.057 64.6181C113.041 83.2414 108.385 95.4631 91.5075 109.431C98.4913 106.327 113.39 96.976 117.115 84.4052C118.808 79.7496 118.279 76.2578 117.115 69.8564C115.951 63.455 121.77 61.1263 124.098 61.708C126.426 62.2899 136.321 65.7823 132.829 86.7333C129.337 107.685 113.042 126.308 67.0661 129.8C21.0898 133.292 -13.2455 90.2256 12.361 62.872C18.7633 52.9791 15.7343 39.3601 17.5964 31.4453C19.9243 21.5516 30.4005 13.4041 46.114 33.7734C49.2181 32.9973 56.5892 31.4453 61.2448 31.4453C62.9908 28.3415 67.1808 21.3186 69.9743 18.0595ZM46.1901 73.2373C45.4245 68.4773 42.2316 65.0317 39.0583 65.5419C35.885 66.0523 33.9325 70.325 34.698 75.0849C35.4636 79.845 38.6574 83.2906 41.8308 82.7802C45.004 82.2698 46.9556 77.9971 46.1901 73.2373ZM69.197 75.3398C68.9687 75.5 68.7453 75.6391 68.5183 75.7734C66.4694 76.945 64.6306 77.2114 62.6687 77.6191C60.7062 77.9908 58.6263 78.4138 56.278 78.8915C56.0159 78.9426 55.7461 78.9925 55.4802 79.041C55.6926 79.2083 55.9243 79.3674 56.1579 79.5146C58.2639 80.8269 60.8064 81.37 63.3064 80.8925C65.7722 80.4588 68.3258 78.6552 69.0222 76.1572C69.1029 75.8848 69.1581 75.6161 69.197 75.3398ZM86.78 65.4404C86.0144 60.6804 82.8214 57.2349 79.6481 57.7451C76.4749 58.2555 74.5224 62.5281 75.2878 67.288C76.0534 72.0481 79.2472 75.4938 82.4206 74.9833C85.5939 74.4728 87.5455 70.2003 86.78 65.4404Z" fill="black"/>
</svg>
