<svg width="140" height="140" viewBox="0 0 140 140" fill="none" xmlns="http://www.w3.org/2000/svg">
<path d="M119.067 16.7134C119.346 15.7517 120.709 15.7517 120.988 16.7134L123.978 27.0171C124.068 27.3267 124.301 27.574 124.605 27.6813L134.237 31.0843C135.126 31.3984 135.126 32.6559 134.237 32.97L124.605 36.3729C124.301 36.4803 124.068 36.7276 123.978 37.0371L120.988 47.3408C120.709 48.3026 119.346 48.3026 119.067 47.3408L116.077 37.0371C115.988 36.7276 115.754 36.4803 115.45 36.3729L105.819 32.97C104.93 32.6559 104.93 31.3984 105.819 31.0843L115.45 27.6813C115.754 27.574 115.988 27.3267 116.077 27.0171L119.067 16.7134Z" fill="#538D70"/>
<path d="M69.9743 18.0595C73.4663 13.9855 85.1059 0.019048 92.6716 25.6259C100.237 51.2325 99.8424 48.045 106.057 64.6181C113.041 83.2414 108.385 95.4631 91.5075 109.431C98.4912 106.327 113.39 96.9759 117.115 84.4052C118.808 79.7496 118.279 76.2577 117.115 69.8563C115.951 63.4547 121.77 61.126 124.098 61.7079C126.426 62.2899 136.32 65.7821 132.828 86.7333C129.336 107.685 113.041 126.308 67.0651 129.8C21.0889 133.291 -13.2464 90.2255 12.36 62.872C18.7626 52.979 15.7342 39.3601 17.5964 31.4452C19.9243 21.5516 30.3995 13.4041 46.113 33.7733C49.2168 32.9972 56.589 31.4452 61.2448 31.4452C62.9907 28.3415 67.1808 21.3186 69.9743 18.0595ZM46.1901 73.2372C45.4245 68.4771 42.2307 65.0315 39.0573 65.5419C35.8842 66.0526 33.9324 70.3251 34.6979 75.0849C35.4635 79.845 38.6573 83.2906 41.8307 82.7802C45.0038 82.2695 46.9555 77.9969 46.1901 73.2372ZM69.1969 75.3397C68.9687 75.4999 68.7453 75.639 68.5182 75.7733C66.4695 76.9449 64.6305 77.2114 62.6686 77.619C60.7061 77.9908 58.6254 78.4138 56.277 78.8915C56.015 78.9425 55.746 78.9925 55.4801 79.0409C55.6926 79.2082 55.9233 79.3674 56.1569 79.5145C58.2629 80.827 60.8053 81.3698 63.3053 80.8925C65.7713 80.4588 68.3257 78.6553 69.0221 76.1571C69.1029 75.8848 69.1581 75.6161 69.1969 75.3397ZM86.78 65.4403C86.0143 60.6802 82.8205 57.2346 79.6471 57.745C76.4741 58.2557 74.5224 62.5282 75.2878 67.288C76.0534 72.0481 79.2472 75.4937 82.4206 74.9833C85.5937 74.4726 87.5454 70.2001 86.78 65.4403Z" fill="white"/>
</svg>
