<svg width="140" height="140" viewBox="0 0 140 140" fill="none" xmlns="http://www.w3.org/2000/svg">
<path d="M25.015 36.9175C23.415 43.7175 26.0174 55.4185 20.5166 63.918C-1.4829 87.4185 28.0158 124.418 67.5158 121.418C107.016 118.418 121.015 102.418 124.015 84.418C127.015 66.418 118.515 63.418 116.515 62.918C114.515 62.418 109.515 64.418 110.515 69.918C111.515 75.418 111.969 78.418 110.515 82.418C107.315 93.218 94.515 101.251 88.515 103.918C103.015 91.918 107.015 81.418 101.015 65.418C95.6755 51.1793 96.015 53.9178 89.515 31.9178C83.015 9.91781 73.015 21.9178 70.015 25.4178C67.615 28.2178 64.015 34.2509 62.515 36.9175C58.515 36.9175 52.1817 38.251 49.515 38.9178C36.015 21.4178 27.015 28.4175 25.015 36.9175Z" stroke="black" stroke-width="5" stroke-linecap="round" stroke-linejoin="round"/>
<ellipse cx="79.5162" cy="66.918" rx="5" ry="7.5" transform="rotate(-9.13724 79.5162 66.918)" fill="black"/>
<ellipse cx="44.6442" cy="73.6167" rx="5" ry="7.5" transform="rotate(-9.13724 44.6442 73.6167)" fill="black"/>
<path d="M112.056 24.7276C112.335 23.7658 113.698 23.7658 113.977 24.7276L116.39 33.0442C116.48 33.3538 116.714 33.6011 117.018 33.7084L124.848 36.4751C125.737 36.7892 125.737 38.0467 124.848 38.3608L117.018 41.1275C116.714 41.2349 116.48 41.4822 116.39 41.7917L113.977 50.1083C113.698 51.0701 112.335 51.0701 112.056 50.1083L109.643 41.7917C109.553 41.4822 109.32 41.2349 109.016 41.1275L101.185 38.3608C100.296 38.0467 100.296 36.7892 101.185 36.4751L109.016 33.7084C109.32 33.6011 109.553 33.3538 109.643 33.0442L112.056 24.7276Z" fill="black"/>
<path d="M57.563 77.809C57.7445 77.9571 57.9419 78.0976 58.1421 78.2281C59.9468 79.392 62.1405 79.8789 64.2995 79.4664C66.4284 79.0933 68.6374 77.5125 69.2082 75.3393C69.2747 75.1024 69.3182 74.8693 69.3477 74.6295C69.1476 74.7649 68.9522 74.8822 68.754 74.995C66.9664 75.9747 65.4013 76.172 63.7258 76.5218C62.0506 76.839 60.2732 77.2219 58.2507 77.6685C58.0248 77.7164 57.7927 77.763 57.563 77.809Z" fill="black"/>
</svg>
