<svg width="130" height="36" viewBox="0 0 130 36" fill="none" xmlns="http://www.w3.org/2000/svg">
<path d="M127.768 25.031L128.772 32.1793V32.6916L128.748 32.9244C128.748 33.9334 128.533 34.6475 128.102 35.0666C127.672 35.4857 126.835 35.6953 125.592 35.6953H125.305C124.189 35.6953 123.48 35.1054 123.177 33.9257C123.018 33.3203 122.938 30.9841 122.938 26.9171V16.9512L122.819 15.3911V14.8789C122.819 14.1182 122.962 13.5905 123.249 13.2955C123.536 13.0006 123.99 12.8531 124.612 12.8531H125.425C126.556 12.8531 127.25 13.2489 127.505 14.0406C127.616 14.3821 127.672 15.6551 127.672 17.8593V22.8888L127.744 24.2859C127.76 24.4722 127.768 24.7205 127.768 25.031Z" fill="white"/>
<path d="M124.861 0.268252C124.967 -0.0894165 125.488 -0.0894179 125.594 0.268251L126.516 3.36125C126.55 3.47637 126.639 3.56834 126.755 3.60827L129.746 4.63721C130.085 4.75404 130.085 5.2217 129.746 5.33853L126.755 6.36747C126.639 6.4074 126.55 6.49937 126.516 6.61449L125.594 9.70749C125.488 10.0652 124.967 10.0652 124.861 9.70749L123.939 6.61449C123.905 6.49937 123.816 6.4074 123.7 6.36747L120.71 5.33853C120.37 5.2217 120.37 4.75404 120.71 4.63721L123.7 3.60827C123.816 3.56834 123.905 3.47637 123.939 3.36125L124.861 0.268252Z" fill="#518B70"/>
<path d="M98.6947 1.86328C100.081 1.86328 100.95 2.35228 101.301 3.33027C101.492 3.85808 101.588 5.72093 101.588 8.91882C101.588 12.1012 101.89 13.6924 102.496 13.6924C102.703 13.6924 102.99 13.638 103.357 13.5294L103.859 13.3664C104.337 13.2111 104.815 13.0714 105.293 12.9472C105.788 12.823 106.8 12.7609 108.33 12.7609C111.39 12.7609 113.518 14.2823 114.714 17.3249C115.654 19.6535 116.124 24.6521 116.124 32.3208C116.124 33.4541 115.949 34.1759 115.598 34.4864C115.247 34.7969 114.745 34.9521 114.092 34.9521C113.104 34.9521 112.45 34.2303 112.131 32.7865C112.004 32.2277 111.836 29.9845 111.629 26.057C111.438 22.114 111.143 19.7 110.745 18.8152C110.075 17.2783 108.912 16.5099 107.254 16.5099C104.991 16.5099 103.421 17.4413 102.544 19.3042C102.034 20.3443 101.651 22.7815 101.396 26.6159C101.141 30.4347 100.966 32.5304 100.87 32.903C100.472 34.4243 99.6829 35.185 98.5034 35.185C97.8021 35.185 97.2841 35.0297 96.9493 34.7193C96.6146 34.4088 96.4473 33.8577 96.4473 33.066V31.6688L96.4712 30.9237L96.5429 27.2446L96.5907 24.3339L96.6385 22.8669L96.7103 18.4659C96.7262 17.9691 96.7342 17.4802 96.7342 16.9989L96.8059 12.6445C96.8059 7.73901 96.8936 4.71965 97.0689 3.58642C97.2602 2.43766 97.8021 1.86328 98.6947 1.86328Z" fill="white"/>
<path d="M82.844 35.8836H81.7921C80.4691 35.8836 79.1701 35.612 77.8949 35.0686C76.6198 34.5098 75.5599 33.7336 74.7151 32.7401C73.1212 30.8927 72.3242 28.3934 72.3242 25.2421V24.171C72.3242 20.6626 73.2806 17.8761 75.1933 15.8114C76.2134 14.7093 77.4088 13.8865 78.7796 13.3432C80.1663 12.7843 81.5211 12.5049 82.844 12.5049H83.8721C85.3863 12.5049 86.8049 12.9007 88.1279 13.6924C89.4508 14.4686 90.1123 15.2603 90.1123 16.0676C90.1123 17.1853 89.5385 17.7441 88.3909 17.7441C88.2952 17.7441 87.57 17.5501 86.2152 17.162C84.8603 16.7739 83.7287 16.5799 82.8201 16.5799C79.0266 16.5799 77.1299 19.3586 77.1299 24.9161C77.1299 27.2602 77.6877 29.0221 78.8035 30.2019C79.9192 31.3662 81.4733 31.9484 83.4657 31.9484C84.1989 31.9484 85.3784 31.7155 87.0042 31.2498C88.6459 30.7685 89.6341 30.5279 89.9688 30.5279C90.718 30.5279 91.0925 31.0014 91.0925 31.9484C91.0925 32.8953 90.0166 33.85 87.8649 34.8125C86.271 35.5266 84.5973 35.8836 82.844 35.8836Z" fill="white"/>
<path d="M52.933 23.0534C51.5781 21.9202 50.9007 20.4299 50.9007 18.5826C50.9007 16.7197 51.6977 15.1829 53.2916 13.972C54.9014 12.7612 57.0293 12.1558 59.6752 12.1558H60.2729C61.7393 12.1558 63.0304 12.3576 64.1461 12.7612C65.8835 13.3977 66.7522 14.0962 66.7522 14.8569C66.7522 15.9746 66.1704 16.5335 65.0069 16.5335C64.8953 16.5335 64.2179 16.3937 62.9746 16.1143C61.7473 15.8194 60.6236 15.6719 59.6035 15.6719C58.5834 15.6719 57.6669 15.9125 56.854 16.3937C56.0411 16.875 55.6346 17.5735 55.6346 18.4894C55.6346 19.4053 56.1367 20.1582 57.1409 20.7481C57.7466 21.1052 59.1014 21.633 61.2054 22.3316C63.3253 23.0301 64.9112 23.8063 65.9632 24.6601C67.334 25.7623 68.0193 27.175 68.0193 28.8981V29.457C68.0193 31.3353 67.1746 32.8955 65.485 34.1374C63.8114 35.3793 61.7632 36.0002 59.3405 36.0002H58.7189C56.6468 36.0002 54.7899 35.6432 53.1481 34.9291C51.5064 34.1995 50.6855 33.4155 50.6855 32.5772C50.6855 31.3974 51.2992 30.8075 52.5265 30.8075C52.7975 30.8075 53.6183 31.0404 54.9891 31.5061C56.3758 31.9563 57.6988 32.1814 58.958 32.1814C60.2171 32.1814 61.2452 31.933 62.0422 31.4362C62.8391 30.9395 63.2376 30.2331 63.2376 29.3172C63.2376 28.3858 62.7276 27.6096 61.7075 26.9887C61.0858 26.6006 59.6832 26.034 57.4995 25.2888C55.3318 24.5282 53.8096 23.783 52.933 23.0534Z" fill="white"/>
<path d="M44.5428 5.93828C44.5428 7.55275 43.6024 8.35998 41.7215 8.35998H41.5303L41.4346 8.3367L40.7174 8.26684C40.6536 8.25132 40.5978 8.24356 40.55 8.24356C39.514 8.24356 38.996 7.55275 38.996 6.17114V5.72871C38.996 4.87491 39.1952 4.25396 39.5937 3.86586C39.9922 3.47777 40.4863 3.28372 41.076 3.28372L41.6259 3.21387H42.1758L42.9887 3.3303C43.9769 3.3303 44.471 3.87363 44.471 4.96029L44.5428 5.49586V5.93828ZM43.7538 25.0325L44.758 32.1811V32.6934L44.734 32.9263C44.734 33.9353 44.5189 34.6494 44.0885 35.0686C43.6582 35.4877 42.8213 35.6973 41.5781 35.6973H41.2912C40.1755 35.6973 39.4662 35.1074 39.1633 33.9276C39.0039 33.3221 38.9242 30.9858 38.9242 26.9186V16.9524L38.8047 15.3922V14.8799C38.8047 14.1193 38.9481 13.5915 39.235 13.2965C39.5219 13.0016 39.9762 12.8541 40.5978 12.8541H41.4107C42.5424 12.8541 43.2358 13.25 43.4908 14.0417C43.6024 14.3832 43.6582 15.6561 43.6582 17.8605V22.8902L43.7299 24.2873C43.7458 24.4736 43.7538 24.722 43.7538 25.0325Z" fill="white"/>
<path d="M8.12895 13.762C9.3722 13.2963 10.5278 13.0635 11.5957 13.0635C12.6796 13.0635 13.5801 13.2342 14.2974 13.5758C15.0306 13.9018 15.7718 14.2899 16.5209 14.74C17.286 15.1902 17.804 15.4153 18.075 15.4153C18.3459 15.4153 19.2146 15.0816 20.681 14.414C22.1474 13.7465 23.558 13.4128 24.9129 13.4128C26.2677 13.4128 27.479 13.7776 28.547 14.5072C29.6149 15.2368 30.3959 16.2691 30.89 17.6042C31.7826 19.9948 32.2289 24.877 32.2289 32.2508C32.2289 33.7721 31.7428 34.5328 30.7705 34.5328C29.8141 34.5328 29.1447 33.8808 28.7621 32.5768C28.3796 31.2573 27.9971 28.9675 27.6145 25.7076C27.2479 22.4476 26.8734 20.4295 26.4908 19.6533C25.7098 18.1164 24.5303 17.348 22.9523 17.348C21.3903 17.348 20.3144 18.1785 19.7247 19.8396C19.3421 20.9573 18.9915 23.4721 18.6727 27.3841C18.3539 31.2806 18.1706 33.3064 18.1228 33.4617C17.8199 34.4707 17.0947 34.9752 15.9471 34.9752C14.8154 34.9752 14.1141 34.7036 13.8431 34.1602C13.5722 33.6014 13.4367 31.1253 13.4367 26.7321C13.4367 22.3234 13.1817 19.5912 12.6716 18.5356C12.1616 17.4645 11.1654 16.9289 9.68302 16.9289C8.96576 16.9289 8.16083 17.2238 7.26824 17.8137C6.39159 18.4036 5.73808 19.1953 5.30773 20.1889C4.89331 21.1824 4.57453 23.2626 4.35138 26.4294C4.12823 29.5807 3.86524 31.6687 3.56239 32.6932C3.25955 33.7023 2.66183 34.2068 1.76924 34.2068C1.14762 34.2068 0.693352 33.9274 0.406448 33.3685C0.135483 32.8097 0 31.8006 0 30.3414L0.0239087 29.4798C0.0239087 28.8899 0.0239087 28.3 0.0239087 27.7101C0.0239087 22.2613 0.255026 18.4502 0.717261 16.2769C0.988226 15.0195 1.68955 14.3908 2.82122 14.3908L5.45118 14.7633L8.12895 13.762Z" fill="white"/>
</svg>
